<svg width="571" height="110" viewBox="0 0 571 110" fill="none" xmlns="http://www.w3.org/2000/svg">
<g clip-path="url(#clip0_384_47)">
<path fill-rule="evenodd" clip-rule="evenodd" d="M0 108.406V107.898C4.86125 105.992 6.26865 103.959 6.26865 93.0297V36.1007C6.26865 25.1713 4.86125 23.1384 0 21.2325V20.7246H40.8071V38.6414H40.2959L35.8181 30.7637C32.8755 25.4253 30.3178 24.1556 26.2249 24.1556H17.9098V61.6428H26.7361C31.3403 61.6428 32.8755 59.7368 36.8421 53.5096H37.3533V73.08H36.8421C33.2589 66.8528 31.3403 65.0738 26.7361 65.0738H17.9098V104.975H27.1196C32.492 104.975 34.5385 104.086 37.8645 98.4936L43.8776 88.456H44.6444L42.9814 108.406H0Z" fill="black"/>
<path fill-rule="evenodd" clip-rule="evenodd" d="M47.8333 108.406V107.898C52.5642 105.992 53.9324 103.959 53.9324 93.0297V36.1007C53.9324 25.1713 52.5642 23.1384 47.8333 21.2325V20.7246H71.3619V21.2325C66.631 23.1384 65.2628 25.1713 65.2628 36.1007V104.975H72.2325C77.4624 104.975 79.4539 104.086 82.6908 98.4936L88.5411 88.456H89.2888L87.6704 108.406H47.8333Z" fill="black"/>
<mask id="mask0_384_47" style="mask-type:alpha" maskUnits="userSpaceOnUse" x="100" y="15" width="116" height="95">
<path d="M100.107 15.924H215.027V109.009H100.107V15.924Z" fill="white"/>
</mask>
<g mask="url(#mask0_384_47)">
<path fill-rule="evenodd" clip-rule="evenodd" d="M172.938 46.5699C169.747 43.0875 171.678 36.9794 164.953 35.6748C160.336 34.7796 159.383 38.4058 155.747 38.5085C151.672 38.6235 147.49 32.9247 143.385 39.249C145.491 39.7788 146.606 40.3346 147.71 42.0786C145.76 41.7131 143.19 41.3257 141.378 42.021C139.981 42.5577 139.574 43.8034 139.209 45.0929C141.463 45.6487 142.58 45.1696 144.366 45.2298C145.71 45.275 147.076 45.4557 148.288 46.0813C151.103 47.5351 151.38 51.431 150.804 54.2222C150.514 55.6335 149.736 56.8327 149.487 58.2742C151.066 58.7095 152.36 58.3618 153.963 58.2879C155.603 58.2126 157.263 58.2044 158.897 58.3919C159.535 58.4659 163.436 58.9573 163.558 59.7212C163.919 61.9798 162.348 62.3454 160.734 63.3433C158.393 64.7915 154.856 67.1885 156.783 70.4863C157.694 72.0468 159.482 72.7573 161.092 73.335C162.445 73.8196 165.674 74.8654 167.554 72.6218C166.723 71.2282 164.748 69.3117 162.302 68.5903C164.267 67.5376 167.719 68.8545 169.227 70.1988C170.653 67.5239 167.142 65.2981 165.386 65.183C166.613 64.3329 169.52 64.4411 170.895 65.706C181.863 63.3802 191.144 71.647 196.369 84.8681C189.847 76.4 181.755 69.9839 173.958 70.8941C184.834 75.9989 189.847 85.0748 190.608 91.6538C188.565 88.6685 182.893 79.0146 174.349 77.7072C188.137 94.686 193.986 122.376 192.557 142.227C192.28 146.093 188.26 150.622 184.747 151.938C192.01 141.062 188.644 117.78 187.978 114.551C182.944 90.1791 172.384 82.8612 169.009 81.0432C174.733 88.9131 178.224 94.5562 179.389 112.783C176.304 105.225 173.221 95.4706 166.214 87.3225C168.187 93.2707 172.506 105.76 171.552 118.304C169.296 110.594 165.327 101.357 162.286 96.6365C161.864 110.348 162.65 132.631 164.886 149.865C165.595 155.326 166.65 162.07 165.906 163.068C164.957 164.339 163.769 165.709 162.15 166.526C151.366 163.556 136.318 155.987 125.539 145.853C104.854 126.405 94.6355 99.9477 103.07 71.398C106.104 61.127 110.937 52.3975 117.018 43.7008C117.507 43.004 119.19 41.0519 119.611 40.7028C118.031 38.0458 118.111 35.197 118.996 33.156C121.059 28.4004 127.146 27.4463 129.988 27.3203C131.212 25.0096 135.161 21.8611 138.158 20.6332C142.114 17.7612 147.713 15.9269 152.409 15.9269C153.887 15.9269 155.963 15.868 157.554 16.2759C159.793 15.5641 161.326 16.165 161.743 17.1795C153.547 19.4847 155.315 29.7625 156.728 31.605C157.378 15.5039 167.985 15.445 170.106 20.0788C168.22 19.0685 164.389 17.5244 162.001 21.2739C161.076 22.7262 159.532 27.7597 161.414 31.208C162.892 26.8097 164.169 24.9425 165.038 24.1184C169.962 19.445 174.308 21.8926 174.315 23.1479C169.654 20.5264 165.273 26.7331 165.273 32.1991C166.848 29.4654 170.895 26.2581 173.037 26.2676C172.305 26.933 169.163 29.4654 169.184 33.2504C171.745 31.2368 173.859 29.1561 176.706 28.3046C176.824 27.089 175.917 26.1308 175.173 25.2478C176.883 25.1876 178.356 26.0787 179.711 27.7433C192.499 26.9699 193.659 37.6639 191.909 42.3579C194.408 43.7842 198.558 47.4776 199.723 50.6069C196.332 47.4776 187.548 40.8411 178.78 41.9786C176.095 42.3264 174.054 44.3181 172.892 46.6152L172.938 46.5699ZM155.61 96.5998C147.831 123.795 153.578 144.306 159.511 160.161C161.767 144.9 159.413 117.166 155.61 96.5998ZM151.012 94.686C135.279 123.795 143.057 148.525 152.411 158.355C146.48 132.604 147.205 119.694 151.012 94.686ZM129.804 139.872C129.294 126.684 130.505 105.196 140.936 87.4677C124.7 102.269 122.875 125.219 129.804 139.872ZM142.527 152.743C134.942 132.54 138.28 115.647 142.88 98.3808C132.735 111.801 130.001 138.298 142.527 152.743ZM131.594 87.4939C117.91 96.4052 113.914 116.795 120.695 131.313C121.059 116.07 122.27 102.754 131.594 87.4939ZM112.097 113.864C113.741 101.362 120.211 87.3718 129.143 76.8805C115.972 82.6094 108.292 98.4316 112.097 113.864ZM147.994 65.977C146.687 66.2002 141.501 67.0503 141.598 70.311C143.59 69.6431 146.956 68.63 148.288 69.1009C146.105 70.1838 144.591 71.5089 143.765 72.7764C145.222 73.8593 151.745 74.2452 153.553 69.9592C154.848 66.8847 152.974 63.5623 149.73 62.8792C148.31 62.5808 143.152 62.448 141.848 65.5103C143.726 64.923 147.218 65.2324 147.994 65.977ZM107.146 95.6261C112.097 81.2664 120.266 75.0379 125.539 70.8887C114.574 72.5014 105.558 81.5101 107.146 95.6261ZM126.751 62.4644C120.332 60.8436 108.707 65.0284 107.977 76.0139C114.761 68.5684 119.727 64.9066 126.751 62.4644ZM138.945 49.6623C137.466 51.1271 137.092 53.969 137.927 55.9771C138.505 57.3693 139.904 57.8717 141.308 57.9429C144.899 58.1263 148.131 55.0354 146.552 51.3201C145.622 50.0539 142.621 53.3078 138.945 49.6623ZM175.492 37.527C179.887 28.6933 189.526 32.0869 188.583 39.8706C188.446 41.0026 189.064 40.9013 190.322 41.4393C191.439 39.9828 191.191 36.8151 190.635 35.1095C188.484 28.5263 176.513 27.3012 175.492 37.527ZM161.493 78.6806C159.338 73.6909 152.553 74.3836 149.977 78.4725C150.188 79.3705 150.777 79.8455 151.438 80.1043C152.169 79.5361 152.817 78.6381 153.979 78.3411V80.9735C155.121 81.5238 155.866 80.9009 156.53 80.2986C157.072 80.7148 157.506 81.0488 157.9 81.3513C159.587 80.8859 161.178 79.6374 161.493 78.6806ZM136.693 34.2786C126.675 24.8906 117.777 34.3962 122.107 38.6508C121.725 36.2388 123.543 33.0095 126.676 32.6386C129.773 32.2703 131.625 33.7049 133.806 35.7638C134.694 35.1724 135.161 34.8124 136.693 34.2786ZM156.164 17.7557C149.48 18.4744 148.184 25.9008 151.445 29.8898C151.896 24.4155 153.369 20.614 156.164 17.7557ZM113.721 60.0428C116.093 58.1592 121.059 55.7404 126.751 54.5289C121.059 50.4988 115.367 54.7725 113.721 60.0428ZM148.518 19.4751C144.235 21.6229 142.519 27.9692 146.829 30.9507C146.239 24.9507 147.639 21.7105 148.518 19.4751ZM143.234 21.3259C139.906 22.907 139.206 28.718 142.467 30.7727C142.196 28.295 141.684 24.5948 143.234 21.3259ZM137.989 23.7626C134.515 26.6318 135.853 29.8446 138.932 30.9507C137.518 28.2772 137.461 26.2745 137.989 23.7626ZM132.567 36.8329C131.523 35.1491 126.71 33.0601 125.143 36.0609C128.442 34.8726 129.857 36.952 131.028 38.3661C131.65 37.7432 132.119 37.3381 132.567 36.8329ZM182.478 35.6392C185.014 36.5359 184.661 38.2689 184.779 38.8521C184.812 39.0176 186.44 39.568 186.724 39.6843C187.278 37.0314 184.779 34.7535 182.478 35.6392ZM142.505 47.817C142.196 48.7301 142.727 49.5939 143.585 49.7596C144.372 49.9101 145.378 49.4406 145.54 48.5535C145.6 48.3948 145.266 48.1894 144.917 48.1264C144.382 48.1524 144.598 49.0901 143.734 48.956C142.97 48.6877 143.783 47.8841 142.505 47.817Z" fill="#0A0B09"/>
<path fill-rule="evenodd" clip-rule="evenodd" d="M213.871 100.245C214.925 108.26 211.086 114.251 210.113 115.792C211.975 98.1034 205.877 85.9435 197.701 73.025C205.877 79.5698 212.295 90.0322 213.871 100.245Z" fill="#0A0B09"/>
<path fill-rule="evenodd" clip-rule="evenodd" d="M193.718 98.3808C202.478 110.459 200.492 131.841 200.233 133.634C199.724 137 196.388 140.406 195.169 141.009C197.248 132.664 198.115 112.935 193.718 98.3808Z" fill="#0A0B09"/>
<path fill-rule="evenodd" clip-rule="evenodd" d="M173.074 47.5848C177.673 44.8388 184.936 45.6478 188.287 48.7894C185.55 47.9024 180.329 48.4951 178.068 49.7873C177.011 50.391 175.943 51.1275 175.539 52.3636C181.469 51.5957 188.039 54.736 190.633 58.4594C180.945 54.9824 175.202 56.3403 173.549 56.6702C172.864 56.2609 173.953 54.6484 173.94 52.5567C173.924 49.3726 173.074 47.5848 173.074 47.5848Z" fill="#0A0B09"/>
<path fill-rule="evenodd" clip-rule="evenodd" d="M200.326 90.8981C209.022 104.396 208.767 118.269 207.819 121.539C206.91 124.678 205.109 128.741 202.387 131.313C202.499 130.954 206.892 115.392 200.326 90.8981Z" fill="#0A0B09"/>
<path fill-rule="evenodd" clip-rule="evenodd" d="M194.408 60.8436C205.877 62.2605 218.868 81.2651 213.962 89.947C211.479 79.6443 204.298 65.8881 194.408 60.8436Z" fill="#0A0B09"/>
</g>
<path fill-rule="evenodd" clip-rule="evenodd" d="M170.935 64.5786C170.475 63.6706 170.384 62.4877 170.491 61.4825C170.616 60.2954 171.169 59.4324 172.365 58.9894C179.684 56.4525 189.307 63.7103 192.252 69.3694C189.045 66.7341 176.116 60.1737 170.935 64.5786Z" fill="#0A0B09"/>
<path fill-rule="evenodd" clip-rule="evenodd" d="M162.647 54.5045C161.8 54.5084 161.583 53.8333 161.532 53.187C161.494 48.7877 162.872 47.508 164.071 47.013C166.465 46.1682 168.132 46.6709 170.117 47.4949C171.646 48.1282 172.129 50.2972 170.052 50.463C168.184 50.6118 167.883 52.995 164.013 52.0234C163.635 52.6346 163.669 54.5045 162.647 54.5045ZM164.551 49.3295C164.309 49.8715 165.01 50.5166 165.445 50.6066C166.111 50.7438 167.135 50.3507 167.335 49.7435C167.479 49.3322 167.669 48.721 166.742 48.8738C166.134 48.9848 166.603 49.7592 165.91 49.925C165.069 49.9276 165.727 48.8882 164.551 49.3295Z" fill="#0A0B09"/>
<path fill-rule="evenodd" clip-rule="evenodd" d="M196.216 51.5316C203.188 53.028 210.194 59.4151 208.956 64.4144C206.199 59.7516 201.27 54.9244 196.216 51.5316Z" fill="#0A0B09"/>
<path fill-rule="evenodd" clip-rule="evenodd" d="M224.817 108.406V107.898C229.678 105.992 231.085 103.959 231.085 93.0297V36.1007C231.085 25.1713 229.678 23.1384 224.817 21.2325V20.7246H265.624V38.6414H265.111L260.635 30.7637C257.692 25.4253 255.133 24.1556 251.041 24.1556H242.726V61.6428H251.551C256.158 61.6428 257.692 59.7368 261.659 53.5096H262.17V73.08H261.659C258.077 66.8528 256.158 65.0738 251.551 65.0738H242.726V104.975H251.936C257.309 104.975 259.355 104.086 262.683 98.4936L268.694 88.456H269.461L267.798 108.406H224.817Z" fill="black"/>
<path fill-rule="evenodd" clip-rule="evenodd" d="M277.433 86.9061H278.314C281.834 100.936 286.989 106.523 293.904 106.523C300.063 106.523 304.715 101.93 304.715 92.8653C304.715 71.0121 277.433 70.7639 277.433 44.3161C277.433 29.1679 286.361 20.7246 297.549 20.7246C302.453 20.7246 306.475 22.3388 309.744 23.9516V40.8396H308.865C305.847 31.5265 302.076 24.8215 294.783 24.8215C288.749 24.8215 285.103 29.416 285.103 36.2451C285.103 56.9803 312.511 56.36 312.511 85.1678C312.511 100.688 304.59 110 292.646 110C288.121 110 280.577 108.635 277.433 106.773V86.9061Z" fill="black"/>
<path fill-rule="evenodd" clip-rule="evenodd" d="M337.218 65.5816C348.236 65.5816 351.608 57.5755 351.608 43.9784C351.608 31.0176 348.626 24.1556 338.125 24.1556H333.849V65.5816H337.218ZM315.7 108.406V107.898C320.625 105.992 322.052 103.959 322.052 93.0297V36.1007C322.052 25.1713 320.625 23.1384 315.7 21.2325V20.7246H339.423C356.404 20.7246 363.533 26.4425 363.533 43.4705C363.533 63.6757 353.164 68.8857 338.515 68.8857H333.849V93.0297C333.849 103.959 335.534 105.992 341.497 107.898V108.406H315.7Z" fill="black"/>
<path fill-rule="evenodd" clip-rule="evenodd" d="M383.004 32.5796L374.388 72.5418H391.114L383.004 32.5796ZM391.114 108.406V107.894C397.703 105.973 396.689 99.3122 392.001 76.5134H373.5C368.56 99.4402 367.545 105.331 374.896 107.894V108.406H357.155V107.894C361.211 105.205 362.985 101.105 369.193 73.951L381.738 19.1304H390.987L402.898 73.823C408.346 99.3122 410.12 105.077 414.555 107.894V108.406H391.114Z" fill="black"/>
<path fill-rule="evenodd" clip-rule="evenodd" d="M457.694 0.252654C456.943 3.03479 454.434 11.3797 447.537 11.3797C442.27 11.3797 438.258 6.57488 434.369 6.57488C431.735 6.57488 429.228 8.97656 428.224 11.506L427.222 11.2534C427.973 8.47126 430.482 0.126327 437.379 0.126327C442.395 0.126327 446.533 4.55218 450.672 4.55218C453.306 4.55218 455.688 2.52948 456.691 0L457.694 0.252654ZM457.945 110L426.093 39.7005V87.1157C426.093 104.311 428.351 106.334 433.115 108.23V108.735H414.806V108.23C419.573 106.334 421.578 104.311 421.578 87.1157V36.7935C421.578 25.9191 419.321 23.8964 414.555 22V21.4947H430.608L459.199 85.7246V43.1157C459.199 25.9191 456.943 23.8964 452.176 22V21.4947H470.361V22C465.594 23.8964 463.713 25.9191 463.713 43.1157V110H457.945Z" fill="black"/>
<path fill-rule="evenodd" clip-rule="evenodd" d="M510.099 65.1769C510.099 33.5129 506.879 23.4554 497.591 23.4554C488.056 23.4554 484.713 34.2587 484.713 65.9213C484.713 97.0877 487.931 107.269 497.343 107.269C507.003 107.269 510.099 96.3419 510.099 65.1769ZM471.955 66.7897C471.955 32.8926 482.979 20.7246 498.333 20.7246C511.708 20.7246 522.977 29.416 522.977 63.9349C522.977 96.8381 512.948 110 496.848 110C482.235 110 471.955 99.5703 471.955 66.7897Z" fill="black"/>
<path fill-rule="evenodd" clip-rule="evenodd" d="M529.355 108.406V107.898C534.085 105.992 535.454 103.959 535.454 93.0297V36.1007C535.454 25.1713 534.085 23.1384 529.355 21.2325V20.7246H552.884V21.2325C548.153 23.1384 546.783 25.1713 546.783 36.1007V104.975H553.756C558.984 104.975 560.976 104.086 564.211 98.4936L570.063 88.456H570.811L569.192 108.406H529.355Z" fill="black"/>
</g>
<defs>
<clipPath id="clip0_384_47">
<rect width="570.811" height="110" fill="white"/>
</clipPath>
</defs>
</svg>
