<svg width="160" height="32" viewBox="0 0 160 32" fill="none" xmlns="http://www.w3.org/2000/svg">
    <title> Factorial </title>
    <path
        d="M26.0744 28.4308C23.3239 30.6626 19.8181 32 16 32C12.1819 32 8.67614 30.6626 5.92564 28.4308C8.67614 26.1989 12.1819 24.8615 16 24.8615C19.8181 24.8615 23.3239 26.1989 26.0744 28.4308Z"
        fill="#FF355E" />
    <path fill-rule="evenodd" clip-rule="evenodd"
        d="M5.8379 24.5688C3.88485 22.255 2.70769 19.265 2.70769 16C2.70769 8.65886 8.65886 2.70769 16 2.70769C23.3411 2.70769 29.2923 8.65886 29.2923 16C29.2923 19.265 28.1152 22.255 26.1621 24.5688C26.8341 24.9887 27.4781 25.4488 28.0907 25.9459L28.3583 26.1631C30.6336 23.3994 32 19.8593 32 16C32 7.16344 24.8366 0 16 0C7.16344 0 0 7.16344 0 16C0 19.8593 1.36637 23.3994 3.64173 26.1631L3.90933 25.9459C4.52191 25.4488 5.16594 24.9887 5.8379 24.5688Z"
        fill="#FF355E" />
    <path
        d="M21.9077 15.5077C21.9077 18.7704 19.2627 21.4154 16 21.4154C12.7373 21.4154 10.0923 18.7704 10.0923 15.5077C10.0923 12.245 12.7373 9.6 16 9.6C19.2627 9.6 21.9077 12.245 21.9077 15.5077Z"
        fill="#FF355E" />
    <path d="M152.862 26.3385H148.923V4.43077H152.862V26.3385Z" fill="#FF355E" />
    <path
        d="M141.846 13.3034V11.5692H145.723V26.3385H141.846V24.1673C140.77 25.5514 139.226 26.2434 137.278 26.2434C135.423 26.2434 133.505 25.5229 132.17 24.082C130.853 22.6221 130.215 20.8609 130.215 18.7563C130.215 16.6708 130.853 14.877 132.17 13.4171C133.505 11.9572 135.33 11.3231 137.185 11.3231C139.133 11.3231 140.77 11.9193 141.846 13.3034ZM135.192 21.6362C135.915 22.3756 136.833 22.7453 137.946 22.7453C139.059 22.7453 139.977 22.3756 140.701 21.6362C141.443 20.8778 141.846 19.9108 141.846 18.7353C141.846 17.5598 141.443 16.6024 140.701 15.8629C139.977 15.1046 139.059 14.7254 137.946 14.7254C136.833 14.7254 135.915 15.1046 135.192 15.8629C134.468 16.6024 134.092 17.5598 134.092 18.7353C134.092 19.9108 134.468 20.8778 135.192 21.6362Z"
        fill="#FF355E" />
    <path
        d="M117.153 11.5692V14.1873C117.473 13.2764 118.272 12.4295 118.726 12.1232C119.145 11.8398 120.109 11.3231 121.108 11.3231V15.3143C119.996 15.1593 119.188 15.6564 118.386 16.2805C117.537 16.9421 117.169 17.8795 117.169 19.275V26.3385H113.231V11.5692H117.153Z"
        fill="#FF355E" />
    <path
        d="M77.3432 26.3385C75.1984 26.3385 73.4047 25.618 71.9622 24.1772C70.5386 22.7363 69.6615 21.002 69.6615 18.8787C69.6615 16.7553 70.5386 14.9252 71.9622 13.4844C73.4047 12.0435 75.1984 11.3231 77.3432 11.3231C78.7288 11.3231 79.9911 11.6549 81.1299 12.3184C82.2688 12.982 83.2931 13.873 83.8815 14.9916L80.5605 16.8401C80.2758 16.2524 79.8392 15.7879 79.2508 15.4466C78.6814 15.1054 78.036 14.9347 77.3148 14.9347C76.2139 14.9347 75.3028 15.3044 74.5815 16.0438C73.8603 16.7643 73.4317 17.6932 73.4317 18.8308C73.4317 19.9304 73.8603 20.8594 74.5815 21.6177C75.3028 22.3381 76.2139 22.6984 77.3148 22.6984C78.055 22.6984 78.7099 22.5372 79.2793 22.2149C79.8677 21.8737 80.465 21.4092 80.7497 20.8214L83.9385 22.6415C83.3121 23.779 82.42 24.6796 81.2622 25.3431C80.1233 26.0067 78.7099 26.3385 77.3432 26.3385Z"
        fill="#FF355E" />
    <path
        d="M63.2615 13.316V11.5692H67.2V26.3384H63.2615V24.2491C62.1686 25.642 60.5998 26.3385 58.6213 26.3385C56.7369 26.3385 54.7882 25.6134 53.4315 24.1633C52.0936 22.6941 51.4462 20.9216 51.4462 18.8037C51.4462 16.7048 52.0936 14.8997 53.4315 13.4305C54.7882 11.9613 56.6421 11.3231 58.5265 11.3231C60.505 11.3231 62.1686 11.9231 63.2615 13.316ZM56.5014 21.7019C57.2363 22.446 58.169 22.8181 59.2996 22.8181C60.4302 22.8181 61.363 22.446 62.0979 21.7019C62.8516 20.9387 63.2615 19.9656 63.2615 18.7826C63.2615 17.5996 62.8516 16.636 62.0979 15.8919C61.363 15.1286 60.4302 14.747 59.2996 14.747C58.169 14.747 57.2363 15.1286 56.5014 15.8919C55.7665 16.636 55.3846 17.5996 55.3846 18.7826C55.3846 19.9656 55.7665 20.9387 56.5014 21.7019Z"
        fill="#FF355E" />
    <path
        d="M49.7231 4.44394V8.42698C47.7257 8.29166 46.7805 9.42143 46.7805 11.2V11.5692H49.7231V15.5633H46.7692V26.3385H42.8308V15.5633H40.8615V11.5692H42.8308V11.2C42.8308 9.13144 43.6901 7.34378 44.8019 6.29983C45.9325 5.23656 47.5372 4.30861 49.7231 4.44394Z"
        fill="#FF355E" />
    <path d="M128 26.3385H124.062V11.5692H128V26.3385Z" fill="#FF355E" />
    <path
        d="M128.246 6.64615C128.246 7.86968 127.254 8.86154 126.031 8.86154C124.807 8.86154 123.815 7.86968 123.815 6.64615C123.815 5.42263 124.807 4.43077 126.031 4.43077C127.254 4.43077 128.246 5.42263 128.246 6.64615Z"
        fill="#FF355E" />
    <path fill-rule="evenodd" clip-rule="evenodd"
        d="M103.631 26.3385C107.709 26.3385 111.015 23.0323 111.015 18.9538C111.015 14.8754 107.709 11.5692 103.631 11.5692C99.5524 11.5692 96.2462 14.8754 96.2462 18.9538C96.2462 23.0323 99.5524 26.3385 103.631 26.3385ZM103.631 22.7692C105.738 22.7692 107.446 21.061 107.446 18.9538C107.446 16.8467 105.738 15.1385 103.631 15.1385C101.524 15.1385 99.8154 16.8467 99.8154 18.9538C99.8154 21.061 101.524 22.7692 103.631 22.7692Z"
        fill="#FF355E" />
    <path
        d="M85.9077 20.1901V9.13493L90.0136 7.87692V11.5926H94.0682V15.4673H90.0136C90.0136 16.8091 89.9623 19.0429 89.9623 20.0896C89.9623 21.7502 90.9832 22.4359 92.0075 22.4359C93.0319 22.4359 93.9473 21.8285 93.9473 21.8285L95.2615 25.2919C95.2615 25.2919 92.3716 27.1069 89.4964 25.9565C86.6212 24.806 85.9077 22.6006 85.9077 20.1901Z"
        fill="#FF355E" />
</svg>
