<svg width="568" height="84" viewBox="0 0 568 84" fill="none" xmlns="http://www.w3.org/2000/svg">
<path d="M513.647 16.2062H519.448C520.304 16.2062 521.129 16.1419 521.921 16.0133C522.714 15.8847 523.411 15.6435 524.014 15.2898C524.616 14.9039 525.092 14.3734 525.44 13.6981C525.821 13.0228 526.011 12.1386 526.011 11.0453C526.011 9.95203 525.821 9.06776 525.44 8.3925C525.092 7.71724 524.616 7.20276 524.014 6.84905C523.411 6.46319 522.714 6.20595 521.921 6.07733C521.129 5.94871 520.304 5.8844 519.448 5.8844H513.647V16.2062ZM506.181 0H521.493C523.617 0 525.424 0.321552 526.914 0.964657C528.405 1.5756 529.609 2.39556 530.529 3.42453C531.48 4.45349 532.161 5.62716 532.573 6.94552C533.017 8.26388 533.239 9.63048 533.239 11.0453C533.239 12.428 533.017 13.7946 532.573 15.1451C532.161 16.4634 531.48 17.6371 530.529 18.6661C529.609 19.695 528.405 20.5311 526.914 21.1742C525.424 21.7851 523.617 22.0906 521.493 22.0906H513.647V34.4382H506.181V0Z" fill="white"/>
<path d="M498.801 20.946C498.801 25.5063 497.601 28.9029 495.202 31.1359C492.803 33.3374 489.485 34.4382 485.249 34.4382C480.954 34.4382 477.622 33.3374 475.252 31.1359C472.912 28.9344 471.742 25.5377 471.742 20.946V0H478.718V20.946C478.718 21.858 478.792 22.7544 478.94 23.635C479.088 24.5156 479.399 25.3019 479.873 25.9938C480.347 26.6542 480.999 27.2046 481.828 27.6449C482.687 28.0538 483.827 28.2582 485.249 28.2582C487.737 28.2582 489.455 27.6764 490.403 26.5127C491.351 25.3176 491.825 23.462 491.825 20.946V0H498.801V20.946Z" fill="white"/>
<path d="M429.924 0H451.736V6.36672H436.337V13.7463H450.47V19.6307H436.337V28.0715H452.063V34.4382H429.924V0Z" fill="white"/>
<path d="M395.485 0H402.518V14.2769L415.015 0H423.794L411.297 13.6016L425.004 34.4382H416.18L406.549 18.9555L402.518 23.3447V34.4382H395.485V0Z" fill="white"/>
<path d="M372.73 21.1259H381.206L377.083 8.48897H376.991L372.73 21.1259ZM373.418 0H380.794L393.026 34.4382H385.558L383.084 26.7692H370.852L368.286 34.4382H361.048L373.418 0Z" fill="white"/>
<path d="M351.985 34.4382H344.621L338.909 10.9971H338.815L333.198 34.4382H325.692L316.771 0H324.182L329.516 23.4411H329.61L335.463 0H342.402L348.161 23.7305H348.256L353.779 0H361.048L351.985 34.4382Z" fill="white"/>
<path d="M538.159 27.0103H545.539V34.4382H538.159V27.0103ZM545.304 9.26069L543.471 24.1164H540.133L538.347 9.26069V0H545.304V9.26069Z" fill="white"/>
<path d="M515.672 43.0493H544.491V50.62H524.145V59.3951H542.818V66.3923H524.145V76.4291H544.923V83.9998H515.672V43.0493Z" fill="#E2B862"/>
<path d="M486.524 62.3201H493.423C494.441 62.3201 495.421 62.2437 496.364 62.0907C497.306 61.9378 498.135 61.651 498.852 61.2304C499.568 60.7716 500.133 60.1407 500.548 59.3378C501.001 58.5348 501.227 57.4833 501.227 56.1833C501.227 54.8833 501.001 53.8318 500.548 53.0289C500.133 52.2259 499.568 51.6141 498.852 51.1935C498.135 50.7347 497.306 50.4288 496.364 50.2759C495.421 50.1229 494.441 50.0465 493.423 50.0465H486.524V62.3201ZM477.646 43.0493H495.855C498.38 43.0493 500.529 43.4317 502.301 44.1964C504.073 44.9229 505.505 45.8979 506.599 47.1214C507.73 48.345 508.54 49.7406 509.03 51.3082C509.558 52.8759 509.822 54.5009 509.822 56.1833C509.822 57.8274 509.558 59.4525 509.03 61.0584C508.54 62.626 507.73 64.0216 506.599 65.2452C505.505 66.4687 504.073 67.4629 502.301 68.2276C500.529 68.954 498.38 69.3173 495.855 69.3173H486.524V83.9998H477.646V43.0493Z" fill="#E2B862"/>
<path d="M442.277 63.7164C442.277 65.361 442.458 66.9691 442.819 68.5406C443.216 70.0756 443.83 71.4643 444.66 72.7069C445.491 73.9495 446.574 74.9545 447.91 75.722C449.247 76.4529 450.872 76.8184 452.785 76.8184C454.699 76.8184 456.324 76.4529 457.661 75.722C458.997 74.9545 460.08 73.9495 460.911 72.7069C461.741 71.4643 462.337 70.0756 462.698 68.5406C463.095 66.9691 463.294 65.361 463.294 63.7164C463.294 61.9987 463.095 60.3359 462.698 58.7278C462.337 57.1198 461.741 55.6945 460.911 54.4519C460.08 53.1727 458.997 52.1677 457.661 51.4368C456.324 50.6693 454.699 50.2855 452.785 50.2855C450.872 50.2855 449.247 50.6693 447.91 51.4368C446.574 52.1677 445.491 53.1727 444.66 54.4519C443.83 55.6945 443.216 57.1198 442.819 58.7278C442.458 60.3359 442.277 61.9987 442.277 63.7164ZM433.773 63.7164C433.773 60.7927 434.206 58.0883 435.073 55.6031C435.939 53.0814 437.185 50.8886 438.81 49.0247C440.435 47.1608 442.421 45.6989 444.769 44.6391C447.152 43.5792 449.824 43.0493 452.785 43.0493C455.783 43.0493 458.455 43.5792 460.802 44.6391C463.149 45.6989 465.136 47.1608 466.761 49.0247C468.386 50.8886 469.631 53.0814 470.498 55.6031C471.365 58.0883 471.798 60.7927 471.798 63.7164C471.798 66.5671 471.365 69.235 470.498 71.7202C469.631 74.1688 468.386 76.3068 466.761 78.1341C465.136 79.9614 463.149 81.405 460.802 82.4649C458.455 83.4882 455.783 83.9998 452.785 83.9998C449.824 83.9998 447.152 83.4882 444.769 82.4649C442.421 81.405 440.435 79.9614 438.81 78.1341C437.185 76.3068 435.939 74.1688 435.073 71.7202C434.206 69.235 433.773 66.5671 433.773 63.7164Z" fill="#E2B862"/>
<path d="M403.961 61.5745H412.96C414.843 61.5745 416.256 61.1157 417.197 60.1981C418.139 59.2804 418.61 57.7892 418.61 55.7245C418.61 53.7362 418.139 52.3024 417.197 51.4229C416.256 50.5053 414.843 50.0465 412.96 50.0465H403.961V61.5745ZM395.747 43.0493H415.889C417.564 43.0493 419.063 43.3552 420.389 43.967C421.749 44.5405 422.9 45.3435 423.842 46.3758C424.818 47.4082 425.551 48.6126 426.039 49.9891C426.562 51.3274 426.824 52.7803 426.824 54.348C426.824 56.7568 426.353 58.8407 425.411 60.5995C424.504 62.3584 423.005 63.6966 420.912 64.6143V64.729C421.923 65.0349 422.76 65.5128 423.423 66.1628C424.086 66.7746 424.626 67.5202 425.045 68.3996C425.464 69.2408 425.76 70.1776 425.934 71.21C426.144 72.2423 426.283 73.2747 426.353 74.3071C426.388 74.9571 426.423 75.7218 426.458 76.6012C426.492 77.4806 426.545 78.3792 426.615 79.2968C426.719 80.2145 426.859 81.0939 427.033 81.9351C427.242 82.738 427.539 83.4263 427.922 83.9998H419.709C419.255 82.6998 418.976 81.1513 418.872 79.3542C418.767 77.5571 418.61 75.8365 418.401 74.1923C418.122 72.0511 417.529 70.4835 416.622 69.4893C415.715 68.4952 414.233 67.9982 412.175 67.9982H403.961V83.9998H395.747V43.0493Z" fill="#E2B862"/>
<path d="M386.972 67.9562C386.972 73.3789 385.545 77.4178 382.692 80.0731C379.839 82.6909 375.894 83.9998 370.858 83.9998C365.75 83.9998 361.788 82.6909 358.97 80.0731C356.188 77.4552 354.796 73.4163 354.796 67.9562V43.0493H363.091V67.9562C363.091 69.0407 363.179 70.1066 363.355 71.1537C363.531 72.2008 363.901 73.1358 364.465 73.9585C365.028 74.7439 365.803 75.3983 366.79 75.9219C367.811 76.4081 369.167 76.6512 370.858 76.6512C373.816 76.6512 375.859 75.9593 376.986 74.5756C378.113 73.1545 378.677 70.948 378.677 67.9562V43.0493H386.972V67.9562Z" fill="#E2B862"/>
<path d="M316.771 43.0493H348.471V50.62H326.091V59.3951H346.631V66.3923H326.091V76.4291H348.946V83.9998H316.771V43.0493Z" fill="#E2B862"/>
<path d="M196.816 23.5332V0H188.518V23.5332C188.518 26.36 187.954 28.4448 186.826 29.7875C185.699 31.0949 183.655 31.7486 180.695 31.7486C179.004 31.7486 177.647 31.5189 176.625 31.0596C175.639 30.5649 174.864 29.9465 174.3 29.2045C173.736 28.4271 173.366 27.5437 173.19 26.5544C173.014 25.565 172.926 24.5579 172.926 23.5332V0H164.627V23.5332C164.627 28.6921 166.019 32.5083 168.803 34.9818C171.622 37.4552 175.586 38.692 180.695 38.692C185.734 38.692 189.68 37.4552 192.534 34.9818C195.389 32.473 196.816 28.6568 196.816 23.5332Z" fill="white"/>
<path d="M212.26 17.8089V6.46633H218.708C219.66 6.46633 220.576 6.537 221.457 6.67834C222.338 6.81968 223.113 7.10236 223.782 7.52638C224.452 7.91507 224.98 8.48043 225.368 9.22247C225.791 9.96451 226.002 10.9362 226.002 12.1376C226.002 13.339 225.791 14.3107 225.368 15.0528C224.98 15.7948 224.452 16.3778 223.782 16.8019C223.113 17.1905 222.338 17.4556 221.457 17.5969C220.576 17.7382 219.66 17.8089 218.708 17.8089H212.26ZM203.962 0V37.8439H212.26V24.2752H220.981C223.342 24.2752 225.35 23.9396 227.006 23.2682C228.663 22.5615 230.002 21.6428 231.023 20.5121C232.081 19.3813 232.838 18.0916 233.296 16.6428C233.789 15.1588 234.036 13.657 234.036 12.1376C234.036 10.5829 233.789 9.08113 233.296 7.63239C232.838 6.18365 232.081 4.89392 231.023 3.76319C230.002 2.63247 228.663 1.73142 227.006 1.06006C225.35 0.353352 223.342 0 220.981 0H203.962Z" fill="white"/>
<path d="M238.793 29.6815V37.8439H247.091V29.6815H238.793ZM246.826 10.1765V0H239.004V10.1765L241.012 26.5014H244.765L246.826 10.1765Z" fill="white"/>
<path d="M39.0751 83.5673L49.132 46.1494H41.0655L34.9371 71.9332H34.8324L28.4421 46.1494H20.7423L14.2472 71.6187H14.1425L8.22358 46.1494H0L9.89973 83.5673H18.2281L24.4612 58.098H24.566L30.9039 83.5673H39.0751Z" fill="white"/>
<path d="M61.0704 69.1032L65.9417 55.3729H66.0465L70.7606 69.1032H61.0704ZM61.8561 46.1494L47.7136 83.5673H55.9896L58.9228 75.2347H72.9082L75.7367 83.5673H84.2745L70.2892 46.1494H61.8561Z" fill="white"/>
<path d="M87.4995 46.1494V83.5673H95.7231V71.5139L100.437 66.745L111.699 83.5673H122.018L105.99 60.9279L120.603 46.1494H110.337L95.7231 61.6616V46.1494H87.4995Z" fill="white"/>
<path d="M125.301 46.1494V83.5673H153.69V76.6497H133.524V67.4787H151.648V61.0851H133.524V53.067H153.271V46.1494H125.301Z" fill="white"/>
<path fill-rule="evenodd" clip-rule="evenodd" d="M248.286 53.0331H164.03V46.1611H248.286V53.0331Z" fill="white"/>
<path d="M178.352 68.0448H181.109C181.068 66.8402 180.833 65.8091 180.404 64.9517C179.996 64.0737 179.424 63.3489 178.689 62.7773C177.975 62.2056 177.138 61.7871 176.178 61.5217C175.219 61.2562 174.177 61.1235 173.054 61.1235C172.054 61.1235 171.074 61.2562 170.114 61.5217C169.175 61.7667 168.328 62.1546 167.572 62.6854C166.837 63.1958 166.245 63.8594 165.796 64.676C165.347 65.4723 165.122 66.4216 165.122 67.5241C165.122 68.5246 165.316 69.3616 165.704 70.0354C166.113 70.6887 166.644 71.2298 167.297 71.6585C167.971 72.0668 168.726 72.4037 169.563 72.6691C170.4 72.9141 171.247 73.1387 172.105 73.3429C172.983 73.5266 173.84 73.7104 174.677 73.8941C175.515 74.0779 176.26 74.3229 176.913 74.6291C177.587 74.915 178.118 75.2927 178.506 75.7623C178.914 76.2318 179.118 76.8443 179.118 77.5997C179.118 78.396 178.955 79.0493 178.628 79.5597C178.301 80.0702 177.873 80.4785 177.342 80.7847C176.811 81.0706 176.209 81.2747 175.535 81.3972C174.882 81.5197 174.228 81.581 173.575 81.581C172.758 81.581 171.962 81.4789 171.186 81.2747C170.41 81.0706 169.726 80.7541 169.134 80.3254C168.563 79.8966 168.093 79.3556 167.726 78.7022C167.379 78.0285 167.205 77.2323 167.205 76.3135H164.449C164.449 77.6406 164.684 78.7941 165.153 79.7741C165.643 80.7337 166.296 81.5299 167.113 82.1629C167.95 82.7754 168.91 83.2347 169.992 83.541C171.094 83.8472 172.258 84.0004 173.483 84.0004C174.484 84.0004 175.484 83.8779 176.484 83.6329C177.505 83.4083 178.424 83.0408 179.241 82.5304C180.057 81.9995 180.721 81.3258 181.231 80.5091C181.762 79.672 182.027 78.6716 182.027 77.5079C182.027 76.4258 181.823 75.5275 181.415 74.8129C181.027 74.0983 180.496 73.5062 179.822 73.0366C179.169 72.5671 178.424 72.1996 177.587 71.9341C176.75 71.6483 175.892 71.4033 175.014 71.1991C174.157 70.995 173.31 70.8112 172.472 70.6479C171.635 70.4641 170.88 70.2396 170.206 69.9741C169.553 69.7087 169.022 69.3719 168.614 68.9635C168.226 68.5348 168.032 67.9835 168.032 67.3098C168.032 66.5952 168.165 66.0031 168.43 65.5335C168.716 65.0435 169.083 64.6556 169.532 64.3698C170.002 64.0839 170.533 63.8798 171.125 63.7573C171.717 63.6348 172.319 63.5735 172.932 63.5735C174.443 63.5735 175.678 63.9308 176.637 64.6454C177.617 65.3396 178.189 66.4727 178.352 68.0448Z" fill="#E2B862"/>
<path d="M188.472 72.1179V64.0942H194.168C195.822 64.0942 197.027 64.4412 197.782 65.1354C198.558 65.8091 198.946 66.7994 198.946 68.106C198.946 69.4127 198.558 70.4131 197.782 71.1073C197.027 71.8014 195.822 72.1383 194.168 72.1179H188.472ZM185.563 61.6442V83.5104H188.472V74.5679H195.148C197.353 74.5883 199.017 74.0268 200.14 72.8835C201.284 71.7402 201.855 70.1477 201.855 68.106C201.855 66.0644 201.284 64.4821 200.14 63.3592C199.017 62.2158 197.353 61.6442 195.148 61.6442H185.563Z" fill="#E2B862"/>
<path d="M206.915 74.476L210.621 64.2779H210.682L214.326 74.476H206.915ZM209.089 61.6442L200.576 83.5104H203.546L205.996 76.926H215.245L217.634 83.5104H220.849L212.305 61.6442H209.089Z" fill="#E2B862"/>
<path d="M223.129 61.6442V83.5104H226.038V61.6442H223.129Z" fill="#E2B862"/>
<path d="M230.901 61.6442V83.5104H233.657V65.9623H233.719L245.142 83.5104H248.327V61.6442H245.571V79.376H245.509L233.994 61.6442H230.901Z" fill="#E2B862"/>
<path d="M283.597 84L282.548 84L282.548 -4.58671e-08L283.597 0L283.597 84Z" fill="white"/>
</svg>
